<svg xmlns="http://www.w3.org/2000/svg" xmlns:xlink="http://www.w3.org/1999/xlink" width="150" zoomAndPan="magnify" viewBox="0 0 112.5 112.499997" height="150" preserveAspectRatio="xMidYMid meet" version="1.0"><defs><clipPath id="5c51f03d06"><path d="M 0 0 L 112.003906 0 L 112.003906 112.003906 L 0 112.003906 Z M 0 0 " clip-rule="nonzero"/></clipPath><clipPath id="5282d4afad"><path d="M 24 20.003906 L 52 20.003906 L 52 61 L 24 61 Z M 24 20.003906 " clip-rule="nonzero"/></clipPath></defs><g clip-path="url(#5c51f03d06)"><path fill="#ffffff" d="M 0 0 L 112.003906 0 L 112.003906 112.003906 L 0 112.003906 Z M 0 0 " fill-opacity="1" fill-rule="nonzero"/><path fill="#d9d9d9" d="M 0 0 L 112.003906 0 L 112.003906 112.003906 L 0 112.003906 Z M 0 0 " fill-opacity="1" fill-rule="nonzero"/></g><g clip-path="url(#5282d4afad)"><path fill="#3a977e" d="M 31.320312 44.765625 C 31.511719 45.261719 31.261719 45.816406 30.765625 46.007812 C 30.269531 46.195312 29.714844 45.949219 29.523438 45.453125 C 26.648438 38.019531 24.925781 32.621094 24.832031 28.789062 C 24.730469 24.574219 26.453125 22.183594 30.542969 21.148438 C 33.511719 20.011719 35.90625 20.648438 38.117188 22.960938 C 40.136719 25.078125 41.960938 28.660156 43.964844 33.636719 C 45.03125 36.117188 46.054688 38.632812 47.042969 41.1875 C 48.023438 43.722656 48.957031 46.273438 49.84375 48.839844 C 49.960938 49.179688 50.070312 49.492188 50.179688 49.796875 C 51.667969 53.957031 52.851562 57.269531 46.332031 60 C 40.726562 62.347656 38.613281 59.519531 37.058594 55.8125 C 36.792969 55.183594 36.539062 54.503906 36.285156 53.828125 L 36.183594 53.550781 L 36.179688 53.550781 L 29.300781 35.1875 C 29.257812 35.070312 29.238281 34.953125 29.238281 34.835938 C 29.183594 33.589844 29.53125 32.394531 30.183594 31.394531 C 30.847656 30.378906 31.824219 29.570312 33.019531 29.125 C 34.210938 28.679688 35.480469 28.648438 36.648438 28.980469 C 37.816406 29.3125 38.882812 30.003906 39.664062 31.007812 C 39.730469 31.097656 39.78125 31.191406 39.8125 31.289062 L 47.175781 49.066406 C 47.378906 49.558594 47.144531 50.121094 46.648438 50.324219 C 46.15625 50.523438 45.59375 50.289062 45.394531 49.796875 L 38.0625 32.101562 C 37.546875 31.476562 36.867188 31.042969 36.125 30.832031 C 35.34375 30.613281 34.496094 30.632812 33.695312 30.933594 C 32.894531 31.234375 32.238281 31.773438 31.796875 32.449219 C 31.378906 33.089844 31.148438 33.851562 31.164062 34.652344 L 37.988281 52.875 L 37.984375 52.875 L 38.089844 53.152344 C 38.328125 53.796875 38.570312 54.441406 38.835938 55.070312 C 39.988281 57.816406 41.539062 59.917969 45.585938 58.226562 C 50.425781 56.199219 49.511719 53.648438 48.367188 50.449219 C 48.25 50.121094 48.128906 49.785156 48.023438 49.46875 C 47.140625 46.917969 46.214844 44.386719 45.246094 41.875 C 44.28125 39.382812 43.261719 36.890625 42.191406 34.394531 L 42.183594 34.375 C 40.269531 29.605469 38.554688 26.210938 36.71875 24.289062 C 35.105469 22.597656 33.367188 22.128906 31.222656 22.945312 C 31.167969 22.972656 31.113281 22.988281 31.054688 23.003906 C 27.976562 23.777344 26.675781 25.570312 26.757812 28.738281 C 26.84375 32.304688 28.523438 37.523438 31.320312 44.765625 Z M 31.320312 44.765625 " fill-opacity="1" fill-rule="nonzero"/></g><path fill="#d50e11" d="M 54.773438 42.167969 C 54.609375 42.671875 54.066406 42.953125 53.558594 42.785156 C 53.054688 42.625 52.777344 42.082031 52.941406 41.574219 C 55.375 33.988281 57.425781 28.707031 59.757812 25.664062 C 62.324219 22.316406 65.167969 21.539062 69.003906 23.292969 C 72.03125 24.269531 73.496094 26.269531 73.761719 29.453125 C 74.003906 32.367188 73.175781 36.300781 71.605469 41.429688 C 70.878906 44.03125 70.097656 46.632812 69.261719 49.238281 C 68.429688 51.832031 67.550781 54.402344 66.628906 56.953125 C 66.507812 57.292969 66.398438 57.601562 66.292969 57.910156 C 64.835938 62.078125 63.679688 65.402344 56.886719 63.441406 C 51.046875 61.753906 51.179688 58.230469 52.296875 54.367188 C 52.488281 53.710938 52.714844 53.023438 52.945312 52.335938 L 53.035156 52.054688 L 59.21875 33.445312 C 59.257812 33.328125 59.316406 33.226562 59.390625 33.136719 C 60.128906 32.128906 61.152344 31.414062 62.285156 31.046875 C 63.441406 30.671875 64.710938 30.65625 65.921875 31.054688 C 67.128906 31.457031 68.136719 32.230469 68.839844 33.21875 C 69.539062 34.210938 69.933594 35.417969 69.910156 36.6875 C 69.90625 36.796875 69.886719 36.902344 69.851562 37 L 64.414062 55.457031 C 64.261719 55.96875 63.722656 56.257812 63.214844 56.105469 C 62.703125 55.953125 62.414062 55.417969 62.566406 54.910156 L 67.980469 36.535156 C 67.96875 35.726562 67.710938 34.964844 67.265625 34.335938 C 66.796875 33.675781 66.121094 33.160156 65.3125 32.890625 C 64.5 32.621094 63.652344 32.628906 62.878906 32.878906 C 62.152344 33.113281 61.496094 33.566406 61.003906 34.199219 L 54.867188 52.664062 L 54.863281 52.660156 L 54.773438 52.941406 C 54.554688 53.59375 54.335938 54.242188 54.148438 54.902344 C 53.320312 57.765625 53.207031 60.375 57.421875 61.589844 C 62.460938 63.046875 63.351562 60.488281 64.472656 57.28125 C 64.585938 56.949219 64.703125 56.617188 64.816406 56.300781 C 65.734375 53.761719 66.605469 51.210938 67.425781 48.648438 C 68.242188 46.105469 69.019531 43.523438 69.75 40.910156 L 69.757812 40.890625 C 71.261719 35.976562 72.0625 32.257812 71.839844 29.613281 C 71.644531 27.28125 70.585938 25.828125 68.402344 25.121094 C 68.347656 25.105469 68.292969 25.085938 68.238281 25.0625 C 65.355469 23.730469 63.21875 24.3125 61.289062 26.832031 C 59.113281 29.664062 57.144531 34.777344 54.773438 42.167969 Z M 54.773438 42.167969 " fill-opacity="1" fill-rule="nonzero"/><path fill="#e3b614" d="M 14.984375 59.550781 C 15.367188 59.921875 15.378906 60.53125 15.011719 60.914062 C 14.644531 61.296875 14.035156 61.308594 13.648438 60.941406 C 7.875 55.449219 4.011719 51.300781 2.285156 47.875 C 0.390625 44.109375 0.929688 41.214844 4.183594 38.527344 C 6.382812 36.234375 8.820312 35.789062 11.808594 36.941406 C 14.539062 37.992188 17.71875 40.449219 21.65625 44.097656 C 23.679688 45.886719 25.6875 47.726562 27.671875 49.613281 C 29.640625 51.488281 31.574219 53.394531 33.472656 55.339844 C 33.722656 55.597656 33.957031 55.828125 34.1875 56.058594 C 37.308594 59.1875 39.796875 61.675781 35.070312 66.929688 C 31.003906 71.441406 27.886719 69.785156 24.894531 67.097656 C 24.382812 66.640625 23.867188 66.136719 23.34375 65.628906 L 23.132812 65.421875 L 23.132812 65.425781 L 9.0625 51.753906 C 8.972656 51.667969 8.90625 51.570312 8.855469 51.460938 C 8.273438 50.359375 8.074219 49.128906 8.238281 47.949219 C 8.40625 46.746094 8.945312 45.597656 9.832031 44.6875 C 10.71875 43.777344 11.855469 43.207031 13.050781 43.007812 C 14.25 42.808594 15.507812 42.980469 16.644531 43.558594 C 16.742188 43.605469 16.828125 43.671875 16.902344 43.746094 L 31.160156 56.679688 C 31.550781 57.039062 31.578125 57.648438 31.21875 58.039062 C 30.863281 58.433594 30.25 58.460938 29.859375 58.101562 L 15.667969 45.226562 C 14.933594 44.878906 14.132812 44.78125 13.371094 44.90625 C 12.570312 45.039062 11.8125 45.421875 11.21875 46.035156 C 10.621094 46.648438 10.261719 47.414062 10.148438 48.214844 C 10.046875 48.972656 10.164062 49.757812 10.519531 50.472656 L 24.480469 64.042969 L 24.476562 64.046875 L 24.6875 64.25 C 25.179688 64.730469 25.671875 65.210938 26.183594 65.667969 C 28.398438 67.660156 30.703125 68.898438 33.636719 65.640625 C 37.144531 61.746094 35.230469 59.828125 32.828125 57.421875 C 32.582031 57.175781 32.328125 56.921875 32.097656 56.683594 C 30.210938 54.753906 28.289062 52.855469 26.335938 51 C 24.402344 49.160156 22.414062 47.339844 20.378906 45.539062 L 20.363281 45.523438 C 16.59375 42.03125 13.589844 39.691406 11.113281 38.734375 C 8.929688 37.898438 7.15625 38.214844 5.566406 39.867188 C 5.53125 39.910156 5.488281 39.953125 5.441406 39.992188 C 2.988281 42.003906 2.578125 44.175781 4.003906 47.007812 C 5.609375 50.199219 9.355469 54.199219 14.984375 59.550781 Z M 14.984375 59.550781 " fill-opacity="1" fill-rule="nonzero"/><path fill="#fe6b08" d="M 76.296875 53.042969 C 75.871094 53.363281 75.265625 53.277344 74.945312 52.851562 C 74.628906 52.429688 74.710938 51.824219 75.136719 51.507812 C 81.492188 46.695312 86.207031 43.546875 89.871094 42.394531 C 93.894531 41.128906 96.671875 42.125 98.800781 45.761719 C 100.714844 48.296875 100.765625 50.773438 99.148438 53.535156 C 97.675781 56.058594 94.734375 58.800781 90.496094 62.101562 C 88.40625 63.808594 86.269531 65.492188 84.085938 67.144531 C 81.914062 68.789062 79.71875 70.390625 77.5 71.949219 C 77.203125 72.15625 76.933594 72.347656 76.671875 72.535156 C 73.082031 75.117188 70.222656 77.171875 65.789062 71.664062 C 61.980469 66.9375 64.117188 64.125 67.253906 61.605469 C 67.785156 61.175781 68.367188 60.746094 68.953125 60.3125 L 69.1875 60.140625 L 69.183594 60.136719 L 84.953125 48.457031 C 85.050781 48.382812 85.160156 48.332031 85.269531 48.300781 C 86.457031 47.898438 87.703125 47.902344 88.84375 48.253906 C 90.003906 48.609375 91.050781 49.324219 91.8125 50.347656 C 92.570312 51.367188 92.953125 52.578125 92.957031 53.789062 C 92.960938 55.003906 92.585938 56.21875 91.835938 57.246094 C 91.769531 57.332031 91.695312 57.40625 91.609375 57.46875 L 76.542969 69.453125 C 76.125 69.78125 75.519531 69.710938 75.1875 69.296875 C 74.859375 68.878906 74.929688 68.273438 75.34375 67.945312 L 90.34375 56.011719 C 90.800781 55.347656 91.027344 54.570312 91.027344 53.800781 C 91.023438 52.992188 90.765625 52.183594 90.257812 51.496094 C 89.75 50.808594 89.046875 50.332031 88.273438 50.09375 C 87.542969 49.867188 86.746094 49.859375 85.984375 50.09375 L 70.335938 61.6875 L 70.335938 61.683594 L 70.097656 61.859375 C 69.546875 62.269531 68.992188 62.675781 68.460938 63.105469 C 66.132812 64.972656 64.542969 67.042969 67.289062 70.457031 C 70.578125 74.542969 72.78125 72.960938 75.542969 70.980469 C 75.828125 70.773438 76.113281 70.566406 76.386719 70.375 C 78.601562 68.824219 80.78125 67.234375 82.925781 65.609375 C 85.058594 63.996094 87.175781 62.328125 89.277344 60.609375 L 89.292969 60.597656 C 93.351562 57.4375 96.144531 54.855469 97.484375 52.558594 C 98.664062 50.542969 98.636719 48.746094 97.257812 46.914062 C 97.21875 46.871094 97.1875 46.820312 97.15625 46.769531 C 95.5625 44.027344 93.476562 43.277344 90.449219 44.226562 C 87.042969 45.300781 82.488281 48.351562 76.296875 53.042969 Z M 76.296875 53.042969 " fill-opacity="1" fill-rule="nonzero"/><path fill="#2f57a0" d="M 91.207031 87.574219 C 90.703125 87.75 90.4375 88.296875 90.609375 88.796875 C 90.785156 89.300781 91.332031 89.566406 91.832031 89.394531 C 99.378906 86.816406 104.628906 84.664062 107.625 82.273438 C 110.925781 79.644531 111.648438 76.785156 109.816406 72.992188 C 108.78125 69.988281 106.753906 68.566406 103.554688 68.359375 C 100.636719 68.175781 96.714844 69.078125 91.613281 70.75 C 89.023438 71.527344 86.433594 72.359375 83.84375 73.246094 C 81.265625 74.125 78.710938 75.050781 76.175781 76.023438 C 75.839844 76.152344 75.527344 76.265625 75.226562 76.378906 C 71.078125 77.914062 67.777344 79.136719 69.871094 85.882812 C 71.675781 91.679688 75.199219 91.480469 79.042969 90.289062 C 79.699219 90.085938 80.382812 89.84375 81.0625 89.601562 L 81.34375 89.503906 L 81.34375 89.507812 L 99.847656 82.964844 C 99.964844 82.921875 100.066406 82.863281 100.15625 82.785156 C 101.148438 82.027344 101.84375 80.992188 102.191406 79.851562 C 102.542969 78.691406 102.53125 77.421875 102.109375 76.222656 C 101.683594 75.023438 100.890625 74.035156 99.886719 73.351562 C 98.882812 72.671875 97.664062 72.304688 96.390625 72.351562 C 96.28125 72.355469 96.175781 72.378906 96.082031 72.414062 L 77.714844 78.210938 C 77.207031 78.371094 76.929688 78.910156 77.089844 79.417969 C 77.25 79.925781 77.792969 80.203125 78.296875 80.042969 L 96.582031 74.273438 C 97.390625 74.269531 98.160156 74.511719 98.800781 74.945312 C 99.46875 75.398438 100 76.0625 100.285156 76.867188 C 100.570312 77.671875 100.578125 78.523438 100.34375 79.296875 C 100.121094 80.027344 99.683594 80.691406 99.0625 81.191406 L 80.699219 87.6875 L 80.421875 87.789062 C 79.773438 88.019531 79.125 88.246094 78.472656 88.449219 C 75.625 89.332031 73.015625 89.496094 71.710938 85.3125 C 70.15625 80.308594 72.699219 79.367188 75.886719 78.183594 C 76.214844 78.0625 76.550781 77.9375 76.859375 77.820312 C 79.382812 76.851562 81.921875 75.933594 84.46875 75.0625 C 87 74.199219 89.566406 73.375 92.167969 72.59375 L 92.167969 72.589844 L 92.191406 72.585938 C 97.078125 70.984375 100.785156 70.113281 103.4375 70.285156 C 105.769531 70.433594 107.25 71.460938 108 73.625 C 108.015625 73.683594 108.035156 73.738281 108.0625 73.792969 C 109.449219 76.644531 108.910156 78.789062 106.429688 80.765625 C 103.636719 82.992188 98.558594 85.0625 91.207031 87.574219 Z M 91.207031 87.574219 " fill-opacity="1" fill-rule="nonzero"/></svg>